<svg width="24" height="24" viewBox="0 0 24 24" fill="none" xmlns="http://www.w3.org/2000/svg">
<path d="M10.7508 0.784852C11.2826 -0.261617 12.7174 -0.261617 13.2492 0.784852L16.0159 6.22904C16.2202 6.63134 16.5908 6.91265 17.0201 6.99155L22.8292 8.0592C23.9459 8.26441 24.3891 9.6905 23.6012 10.5425L19.502 14.9749C19.199 15.3023 19.0576 15.7576 19.1184 16.2086L19.942 22.3126C20.1003 23.4859 18.9395 24.3672 17.9208 23.8473L12.6207 21.1426C12.229 20.9426 11.771 20.9426 11.3793 21.1426L6.07923 23.8473C5.06045 24.3672 3.89972 23.4859 4.05802 22.3126L4.88159 16.2086C4.94245 15.7576 4.80094 15.3023 4.49802 14.9749L0.398789 10.5425C-0.389163 9.6905 0.0542052 8.26441 1.17083 8.0592L6.97996 6.99155C7.40922 6.91265 7.77972 6.63133 7.98416 6.22904L10.7508 0.784852Z" fill="#A585FF"/>
</svg>
