<svg width="26" height="26" viewBox="0 0 26 26" fill="none" xmlns="http://www.w3.org/2000/svg">
<path d="M11.7508 1.78485C12.2826 0.738383 13.7174 0.738383 14.2492 1.78485L17.0159 7.22904C17.2202 7.63134 17.5908 7.91265 18.0201 7.99155L23.8292 9.0592C24.9459 9.26441 25.3891 10.6905 24.6012 11.5425L20.502 15.9749C20.199 16.3023 20.0576 16.7576 20.1184 17.2086L20.942 23.3126C21.1003 24.4859 19.9395 25.3672 18.9208 24.8473L13.6207 22.1426C13.229 21.9426 12.771 21.9426 12.3793 22.1426L7.07923 24.8473C6.06045 25.3672 4.89972 24.4859 5.05802 23.3126L5.88159 17.2086C5.94245 16.7576 5.80094 16.3023 5.49802 15.9749L1.39879 11.5425C0.610837 10.6905 1.05421 9.26441 2.17083 9.0592L7.97996 7.99155C8.40922 7.91265 8.77972 7.63133 8.98416 7.22904L11.7508 1.78485Z" stroke="#A585FF"/>
</svg>
